<svg width="12" height="12" viewBox="0 0 12 12" fill="none" xmlns="http://www.w3.org/2000/svg">
<path d="M3.2225 5.4H4.44325V6.6H3.2225V5.4ZM11.7677 2.4V10.8C11.7677 11.46 11.2184 12 10.547 12H2.00176C1.67799 12 1.36749 11.8736 1.13855 11.6485C0.90962 11.4235 0.781006 11.1183 0.781006 10.8L0.78711 2.4C0.78711 1.74 1.32424 1.2 2.00176 1.2H2.61213V0H3.83288V1.2H8.71588V0H9.93663V1.2H10.547C11.2184 1.2 11.7677 1.74 11.7677 2.4ZM2.00176 3.6H10.547V2.4H2.00176V3.6ZM10.547 10.8V4.8H2.00176V10.8H10.547ZM8.1055 6.6H9.32625V5.4H8.1055V6.6ZM5.664 6.6H6.88475V5.4H5.664V6.6Z" fill="#B6B6B6"/>
</svg>
