<svg width="13" height="12" viewBox="0 0 13 12" fill="none" xmlns="http://www.w3.org/2000/svg">
<path d="M6.35741 0C2.9918 0 0.253662 2.6916 0.253662 6C0.253662 9.3084 2.9918 12 6.35741 12C9.72301 12 12.4612 9.3084 12.4612 6C12.4612 2.6916 9.72301 0 6.35741 0ZM6.35741 10.8C3.66505 10.8 1.47441 8.6466 1.47441 6C1.47441 3.3534 3.66505 1.2 6.35741 1.2C9.04977 1.2 11.2404 3.3534 11.2404 6C11.2404 8.6466 9.04977 10.8 6.35741 10.8Z" fill="#B6B6B6"/>
<path d="M6.96782 3H5.74707V6.2484L7.75703 8.2242L8.6201 7.3758L6.96782 5.7516V3Z" fill="#B6B6B6"/>
</svg>
