<svg width="18" height="18" viewBox="0 0 18 18" fill="none" xmlns="http://www.w3.org/2000/svg">
<path d="M13.1115 3.46777C12.5063 3.46777 12.1028 3.86333 12.1028 4.45666C12.1028 5.05 12.6072 5.44555 13.1115 5.44555C13.7167 5.44555 14.1201 5.05 14.1201 4.45666C14.1201 3.96222 13.7167 3.46777 13.1115 3.46777Z" fill="white"/>
<path d="M8.67431 4.75488C6.35446 4.75488 4.43805 6.63377 4.43805 8.90822C4.43805 11.1827 6.35446 13.0615 8.67431 13.0615C10.9942 13.0615 12.9106 11.1827 12.9106 8.90822C12.9106 6.63377 10.9942 4.75488 8.67431 4.75488ZM8.67431 11.5782C7.16136 11.5782 5.951 10.3915 5.951 8.90822C5.951 7.42488 7.16136 6.23822 8.67431 6.23822C10.1873 6.23822 11.3976 7.42488 11.3976 8.90822C11.3976 10.3915 10.1873 11.5782 8.67431 11.5782Z" fill="white"/>
<path d="M12.0029 17.4127H5.14416C2.31998 17.4127 0.00012207 15.1382 0.00012207 12.3693V5.64489C0.00012207 2.87601 2.31998 0.601562 5.14416 0.601562H12.0029C14.827 0.601562 17.1469 2.87601 17.1469 5.64489V12.2704C17.2478 15.1382 14.9279 17.4127 12.0029 17.4127ZM5.14416 2.0849C3.12689 2.0849 1.61394 3.66712 1.61394 5.546V12.2704C1.61394 14.2482 3.22775 15.7316 5.14416 15.7316H12.0029C14.0201 15.7316 15.5331 14.1493 15.5331 12.2704V5.546C15.5331 3.56823 13.9193 2.0849 12.0029 2.0849H5.14416Z" fill="white"/>
</svg>
