<svg width="17" height="14" viewBox="0 0 17 14" fill="none" xmlns="http://www.w3.org/2000/svg">
<path d="M16.7233 1.86285C16.2096 2.06833 15.5932 2.27381 15.0795 2.37655C15.3877 2.37655 15.6959 1.86285 15.9014 1.65737C16.1069 1.34915 16.3124 1.04093 16.4151 0.629975V0.527236H16.3124C15.6959 0.835455 15.0795 1.14367 14.3603 1.24641C14.2576 1.24641 14.2576 1.24641 14.2576 1.24641C14.1548 1.14367 14.1548 1.14367 14.0521 1.04093C13.7439 0.835455 13.4356 0.629975 13.1274 0.424495C12.7165 0.219016 12.2028 0.116277 11.6891 0.219016C11.1754 0.219016 10.7644 0.424495 10.3534 0.629975C9.94249 0.835454 9.53153 1.14367 9.22331 1.55463C8.91509 1.96559 8.70961 2.37655 8.60687 2.89025C8.50413 3.40395 8.50413 3.81491 8.60687 4.3286C8.60687 4.43134 8.60687 4.43134 8.50413 4.43134C5.83289 4.02039 3.57262 3.09573 1.72331 1.04093C1.62057 0.938194 1.62057 0.938194 1.51783 1.04093C0.695911 2.27381 1.10687 4.12312 2.13427 5.04778C2.23701 5.15052 2.44249 5.25326 2.54523 5.45874C2.44249 5.45874 1.82605 5.356 1.20961 5.04778C1.10687 5.04778 1.10687 5.04778 1.10687 5.15052C1.10687 5.25326 1.10687 5.356 1.10687 5.56148C1.20961 6.79436 2.13426 7.92449 3.2644 8.33545C3.36714 8.43819 3.57262 8.43819 3.67536 8.43819C3.36714 8.54093 3.16167 8.54093 2.44249 8.43819C2.33975 8.43819 2.33974 8.43819 2.33974 8.54093C2.85344 10.082 4.08632 10.493 5.01098 10.8012C5.11372 10.8012 5.21646 10.8012 5.42193 10.8012C5.11372 11.2122 4.08632 11.6231 3.57262 11.7259C2.64797 12.0341 1.7233 12.1368 0.798647 12.0341C0.695907 12.0341 0.59317 12.0341 0.59317 12.0341V12.1368C0.79865 12.2396 1.00413 12.3423 1.20961 12.445C1.82605 12.7533 2.44249 13.0615 3.05893 13.1642C6.44934 14.0889 10.148 13.3697 12.7165 10.9039C14.6685 8.95189 15.3877 6.28066 15.3877 3.50669C15.3877 3.40395 15.4904 3.30121 15.5932 3.30121C16.1069 2.89025 16.5178 2.47929 16.9288 1.96559C16.7233 2.06833 16.7233 1.96559 16.7233 1.86285Z" fill="white"/>
</svg>
