<svg width="21" height="21" viewBox="0 0 21 21" fill="none" xmlns="http://www.w3.org/2000/svg">
<path d="M9.49854 1C9.84066 1.05055 10.1828 1.08554 10.521 1.14775C12.1655 1.45881 13.5729 2.22479 14.747 3.41458C15.8122 4.4994 16.5198 5.7864 16.8191 7.27948C17.2001 9.15749 16.9357 10.9461 15.9949 12.618C15.6917 13.1546 15.3146 13.6445 14.9569 14.1733C14.9686 14.185 15.0074 14.2316 15.0502 14.2705C16.6053 15.8025 18.1604 17.3344 19.7155 18.8625C20.0537 19.193 20.0926 19.5468 19.8204 19.819C19.5522 20.0873 19.1867 20.0562 18.8563 19.7334C17.2934 18.1937 15.7267 16.654 14.1638 15.1142C14.121 15.0715 14.0744 15.0326 14.0277 14.9898C13.775 15.1609 13.5379 15.3359 13.2891 15.4953C11.8895 16.3779 10.3577 16.7901 8.70934 16.7278C6.5361 16.6462 4.68555 15.8102 3.17323 14.2472C2.03802 13.069 1.34989 11.6654 1.09331 10.0479C1.05443 9.82626 1.0311 9.60852 1 9.38689C1 9.04084 1 8.69479 1 8.34874C1.01166 8.2943 1.02721 8.24375 1.03499 8.18932C1.08164 7.87826 1.10886 7.56331 1.17495 7.25615C1.48596 5.7864 2.17409 4.51106 3.22377 3.43791C4.40175 2.23257 5.81688 1.4627 7.47693 1.14775C7.8035 1.08554 8.13395 1.05055 8.46052 1C8.80653 1 9.15254 1 9.49854 1ZM2.22852 8.82699C2.24407 9.10305 2.24407 9.33246 2.27128 9.55797C2.44234 11.0005 2.9944 12.2758 3.99743 13.3334C5.74301 15.1648 7.89292 15.853 10.3538 15.3748C12.5193 14.9548 14.1366 13.7067 15.0968 11.7043C16.0649 9.68239 16.0066 7.64108 14.9219 5.68919C13.8139 3.68676 12.0605 2.54751 9.79012 2.26756C7.99788 2.04593 6.34949 2.4853 4.90326 3.57789C3.15768 4.90377 2.28683 6.68847 2.22852 8.82699Z" fill="#D9D9D9" stroke="#D9D9D9" stroke-width="0.55"/>
</svg>
